<svg xmlns="http://www.w3.org/2000/svg" viewBox="0 0 305 305">
<title>ASP.NET</title>
	<g transform="translate(0.000000,305.000000) scale(0.100000,-0.100000)"
	fill="#000000" stroke="none">
	<path d="M1510 2573 c-140 -26 -239 -176 -208 -315 17 -75 91 -146 225 -217
	198 -104 227 -156 123 -220 -62 -38 -181 -28 -296 25 -29 13 -55 24 -58 24 -3
	0 -6 -38 -6 -83 0 -71 3 -87 20 -102 25 -23 142 -44 245 -44 158 0 273 45 332
	132 25 38 28 50 28 127 0 136 -34 178 -230 288 -66 36 -132 79 -147 95 -34 36
	-36 76 -5 105 49 46 128 54 243 24 38 -10 75 -17 82 -14 20 6 16 146 -5 163
	-12 10 -56 14 -167 16 -83 0 -162 -1 -176 -4z"/>
	<path d="M651 2557 c-17 -8 -33 -35 -53 -92 -16 -44 -45 -123 -65 -175 -19
	-52 -45 -124 -58 -160 -13 -36 -33 -92 -45 -125 -90 -245 -119 -340 -107 -353
	9 -12 29 -13 97 -8 46 4 89 11 94 16 5 5 23 51 41 102 l31 93 169 0 169 0 31
	-92 c16 -51 35 -97 41 -103 17 -17 166 -24 187 -8 16 12 15 20 -22 133 -22 66
	-65 192 -96 280 -31 88 -60 171 -65 185 -4 14 -25 70 -45 125 -20 55 -40 112
	-45 126 -21 69 -22 69 -133 69 -61 0 -112 -5 -126 -13z m139 -269 c18 -57 43
	-136 56 -176 13 -40 24 -78 24 -86 0 -28 -216 -29 -227 0 -4 12 26 122 79 289
	11 33 30 75 34 75 2 0 17 -46 34 -102z"/>
	<path d="M2090 2104 l0 -467 86 6 c47 2 91 10 97 16 7 7 13 66 15 154 3 91 8
	145 16 149 6 4 34 8 61 8 57 0 189 31 235 55 112 58 182 215 150 335 -17 66
	-66 137 -114 165 -35 21 -62 26 -186 34 -80 6 -193 11 -252 11 l-108 0 0 -466z
	m345 305 c24 -6 55 -23 69 -38 46 -48 47 -142 3 -191 -33 -38 -70 -50 -147
	-50 l-70 0 0 145 0 145 51 0 c27 0 70 -5 94 -11z"/>
	<path d="M540 860 l0 -470 43 0 44 0 6 287 c4 157 7 335 7 395 0 59 4 108 9
	108 5 0 102 -144 216 -320 301 -466 299 -464 378 -458 l42 3 6 135 c4 74 7
	282 8 463 l1 327 -55 0 -55 0 0 -390 c0 -214 -3 -390 -7 -390 -5 0 -37 46 -72
	103 -60 95 -303 478 -378 594 -18 28 -36 59 -39 67 -5 13 -22 16 -80 16 l-74
	0 0 -470z"/>
	<path d="M1560 860 l0 -470 241 0 240 0 -3 47 -3 48 -185 5 -185 5 -6 75 c-4
	41 -7 117 -8 168 l-1 92 158 0 c177 0 196 6 190 55 l-3 30 -170 5 -170 5 -3
	158 -3 157 186 0 185 0 0 45 0 45 -230 0 -230 0 0 -470z"/>
	<path d="M2135 1303 c3 -16 10 -32 14 -36 16 -16 86 -27 174 -27 l87 0 1 -252
	c1 -139 5 -327 8 -418 l6 -165 43 -3 c23 -2 43 -2 44 0 1 2 4 190 7 418 l6
	415 112 6 c125 7 163 22 163 64 l0 25 -336 0 -336 0 7 -27z"/>
	<path d="M205 486 c-29 -45 17 -105 70 -92 29 7 43 62 26 95 -17 31 -75 29
	-96 -3z"/>
	</g>
</svg>